<?xml version="1.0" encoding="UTF-8"?>
<svg width="73px" height="52px" viewBox="0 0 73 52" version="1.1" xmlns="http://www.w3.org/2000/svg" xmlns:xlink="http://www.w3.org/1999/xlink">
    <!-- Generator: sketchtool 52.6 (67491) - http://www.bohemiancoding.com/sketch -->
    <title>5C9F0BDB-1FF9-4766-993F-CF1D9B22A57C</title>
    <desc>Created with sketchtool.</desc>
    <defs>
        <polygon id="path-1" points="9.5 26.8795416 0 0 9.5 5.62595057 19 0"></polygon>
    </defs>
    <g id="2019-Branding" stroke="none" stroke-width="1" fill="none" fill-rule="evenodd">
        <g id="Home-2" transform="translate(-96.000000, -81.000000)">
            <g id="logo" transform="translate(96.000000, 81.000000)">
                <path d="M21.5857988,0 L21.5857988,6.95264624 L7.24260355,6.95264624 L7.24260355,20.8579387 C7.90532876,20.1819836 8.75739124,19.6146727 9.79881657,19.1559889 C10.8402419,18.697305 11.9999936,18.4679666 13.2781065,18.4679666 C15.7396573,18.4679666 17.7396373,19.2284047 19.2781065,20.7493036 C20.8165757,22.2702026 21.5857988,24.5515168 21.5857988,27.5933148 L21.5857988,40.9192201 C21.5857988,42.6573903 21.2899438,44.2024074 20.6982249,45.5543175 C20.1065059,46.9062277 19.3136144,48.0649905 18.3195266,49.0306407 C17.3254388,49.9962908 16.1775213,50.732588 14.8757396,51.2395543 C13.573958,51.7465206 12.2130249,52 10.7928994,52 C9.37277396,52 8.01184083,51.7465206 6.71005917,51.2395543 C5.40827751,50.732588 4.26036,49.9962908 3.26627219,49.0306407 C2.27218438,48.0649905 1.4792929,46.9062277 0.887573964,45.5543175 C0.29585503,44.2024074 0,42.6573903 0,40.9192201 L0,38.7465181 L7.24260355,38.7465181 L7.24260355,40.6295265 C7.24260355,41.8848716 7.58579538,42.8625777 8.27218935,43.5626741 C8.95858331,44.2627704 9.8461484,44.6128134 10.9349112,44.6128134 C12.0236741,44.6128134 12.8639024,44.2748409 13.4556213,43.5988858 C14.0473402,42.9229307 14.3431953,41.9814359 14.3431953,40.7743733 L14.3431953,28.6796657 C14.3431953,27.6657331 14.0236718,26.796661 13.3846154,26.0724234 C12.7455589,25.3481858 11.9289991,24.9860724 10.9349112,24.9860724 C10.3195236,24.9860724 9.7988187,25.0947064 9.37278107,25.3119777 C8.94674343,25.529249 8.5917174,25.7827284 8.30769231,26.0724234 C8.02366722,26.3621184 7.8106516,26.67595 7.66863905,27.0139276 C7.43195148,27.4484701 7.28994107,27.7140199 7.24260355,27.810585 L0.852071006,27.810585 L0.852071006,0 L21.5857988,0 Z M28.0473373,51.5654596 L40.7573964,6.95264624 L32.8047337,6.95264624 L32.8047337,12.8913649 L26.4142012,12.8913649 L26.4142012,0 L48,0 L48,7.38718663 L35.7159763,51.5654596 L28.0473373,51.5654596 Z" id="57-copy" fill="#FFFFFF"></path>
                <g id="Group-4" transform="translate(54.000000, 0.000000)">
                    <mask id="mask-2" fill="white">
                        <use xlink:href="#path-1"></use>
                    </mask>
                    <use id="Triangle-Copy" fill="#F46F32" xlink:href="#path-1"></use>
                </g>
            </g>
        </g>
    </g>
</svg>